<?xml version="1.0" encoding="utf-8"?>
<!-- Generator: Adobe Illustrator 21.0.0, SVG Export Plug-In . SVG Version: 6.00 Build 0)  -->
<svg version="1.1" id="Layer_1" xmlns="http://www.w3.org/2000/svg" xmlns:xlink="http://www.w3.org/1999/xlink" x="0px" y="0px"
	 viewBox="0 0 130 130" style="enable-background:new 0 0 130 130;" xml:space="preserve">
<style type="text/css">
	.st0{fill:#DEDED4;}
	.st1{fill:#404042;}
</style>
<path class="st0" d="M65,0.8c35.2,0,63.6,28.5,63.6,63.6c0,35.2-28.5,63.6-63.6,63.6C29.9,128.1,1.4,99.6,1.4,64.5
	C1.4,29.3,29.9,0.8,65,0.8L65,0.8z"/>
<g>
	<path class="st1" d="M86.2,76.9c0,4.1-1.5,7.4-4.6,10.1s-7.3,4.3-12.8,5v10.4H63v-10c-3.4,0-6.6-0.3-9.7-0.8
		c-3.1-0.5-5.7-1.3-7.7-2.2v-7c2.5,1.1,5.4,2,8.6,2.7c3.2,0.7,6.2,1.1,8.9,1.1V66.5c-6.1-1.9-10.4-4.2-12.9-6.8
		c-2.5-2.6-3.7-5.9-3.7-10c0-3.9,1.5-7.1,4.6-9.7c3-2.5,7.1-4,12.1-4.6v-8.2h5.8v8.1c5.5,0.2,10.8,1.3,15.9,3.3l-2.3,5.9
		c-4.5-1.8-9-2.8-13.6-3.1v19.5c4.7,1.5,8.2,3,10.6,4.4c2.3,1.4,4.1,3.1,5.2,4.9C85.6,72.1,86.2,74.3,86.2,76.9z M54,49.6
		c0,2.3,0.7,4.1,2,5.5c1.3,1.4,3.7,2.7,7,3.9V41.6c-3,0.5-5.2,1.4-6.7,2.8S54,47.6,54,49.6z M78.6,77.5c0-2.2-0.7-3.9-2-5.2
		c-1.3-1.3-3.9-2.7-7.7-4v17.5C75.3,84.9,78.6,82.1,78.6,77.5z"/>
</g>
</svg>
