<?xml version="1.0" encoding="utf-8"?>
<!-- Generator: Adobe Illustrator 21.0.0, SVG Export Plug-In . SVG Version: 6.00 Build 0)  -->
<svg version="1.1" id="Layer_1" xmlns="http://www.w3.org/2000/svg" xmlns:xlink="http://www.w3.org/1999/xlink" x="0px" y="0px"
	 viewBox="0 0 130 130" style="enable-background:new 0 0 130 130;" xml:space="preserve">
<style type="text/css">
	.st0{fill-rule:evenodd;clip-rule:evenodd;fill:#DEDED4;}
	.st1{fill-rule:evenodd;clip-rule:evenodd;fill:#404042;}
</style>
<path class="st0" d="M64.9,1.1c35.2,0,63.6,28.5,63.6,63.6c0,35.2-28.5,63.6-63.6,63.6S1.3,99.9,1.3,64.7
	C1.3,29.6,29.8,1.1,64.9,1.1L64.9,1.1z"/>
<path class="st1" d="M90.2,85.7l-9-9c-0.9-0.9-2.1-1.1-3.2-0.7l-1.7-1.7c7.5-8.4,7.3-21.4-0.8-29.5c-8.4-8.4-22-8.4-30.4,0
	c-8.4,8.4-8.4,22,0,30.4c8.1,8.1,21.1,8.4,29.5,0.8l1.7,1.7c-0.4,1.1-0.2,2.4,0.7,3.2l9,9c1.2,1.2,3.1,1.2,4.3,0
	C91.4,88.8,91.4,86.9,90.2,85.7L90.2,85.7z M72.9,72.7L72.9,72.7c-7,7-18.3,7-25.3,0c-7-7-7-18.3,0-25.3c7-7,18.3-7,25.3,0
	C79.8,54.4,79.8,65.7,72.9,72.7L72.9,72.7z"/>
<path class="st1" d="M54.5,53h6.7c0.3,0,0.5,0.1,0.7,0.3l0,0l0,0c0.2,0.2,0.3,0.4,0.3,0.7v14.4c0,0.1,0,0.2,0,0.3h7.6
	c0.1,0,0.1,0,0.1,0.1c0,0,0.1,0.1,0.1,0.2v0.3c0,0.1,0,0.1-0.1,0.2c0,0-0.1,0.1-0.1,0.1H61c0,0,0,0,0,0h-6.5c-0.3,0-0.5-0.1-0.7-0.3
	v0l0,0c-0.2-0.2-0.3-0.4-0.3-0.7V54c0-0.3,0.1-0.5,0.3-0.7l0,0v0C54,53.1,54.2,53,54.5,53L54.5,53z M56.9,57.5h-1.3
	c-0.1,0-0.2,0-0.3,0.1l0,0c-0.1,0.1-0.1,0.2-0.1,0.3V59c0,0.1,0,0.2,0.1,0.3l0,0c0.1,0.1,0.2,0.1,0.3,0.1h1.3c0.1,0,0.2,0,0.3-0.1
	l0,0c0.1-0.1,0.1-0.2,0.1-0.3v-1.1c0-0.1,0-0.2-0.1-0.3l0,0C57.1,57.6,57,57.5,56.9,57.5L56.9,57.5z M56.9,54.8h-1.3
	c-0.1,0-0.2,0-0.3,0.1l0,0c-0.1,0.1-0.1,0.2-0.1,0.3v1.1c0,0.1,0,0.2,0.1,0.3l0,0c0.1,0.1,0.2,0.1,0.3,0.1h1.3c0.1,0,0.2,0,0.3-0.1
	l0,0c0.1-0.1,0.1-0.2,0.1-0.3v-1.1c0-0.1,0-0.2-0.1-0.3l0,0C57.1,54.8,57,54.8,56.9,54.8L56.9,54.8z M60.1,54.8h-1.3
	c-0.1,0-0.2,0-0.3,0.1l0,0c-0.1,0.1-0.1,0.2-0.1,0.3v1.1c0,0.1,0,0.2,0.1,0.3l0,0c0.1,0.1,0.2,0.1,0.3,0.1h1.3c0.1,0,0.2,0,0.3-0.1
	l0,0c0.1-0.1,0.1-0.2,0.1-0.3v-1.1c0-0.1,0-0.2-0.1-0.3l0,0C60.3,54.8,60.2,54.8,60.1,54.8L60.1,54.8z M56.9,65.8h-1.3
	c-0.1,0-0.2,0-0.3,0.1l0,0c-0.1,0.1-0.1,0.2-0.1,0.3v1.1c0,0.1,0,0.2,0.1,0.3l0,0c0.1,0.1,0.2,0.1,0.3,0.1h1.3c0.1,0,0.2,0,0.3-0.1
	l0,0c0.1-0.1,0.1-0.2,0.1-0.3v-1.1c0-0.1,0-0.2-0.1-0.3l0,0C57.1,65.9,57,65.8,56.9,65.8L56.9,65.8z M60.1,65.8h-1.3
	c-0.1,0-0.2,0-0.3,0.1l0,0c-0.1,0.1-0.1,0.2-0.1,0.3v1.1c0,0.1,0,0.2,0.1,0.3l0,0c0.1,0.1,0.2,0.1,0.3,0.1h1.3c0.1,0,0.2,0,0.3-0.1
	l0,0c0.1-0.1,0.1-0.2,0.1-0.3v-1.1c0-0.1,0-0.2-0.1-0.3l0,0C60.3,65.9,60.2,65.8,60.1,65.8L60.1,65.8z M56.9,63.1h-1.3
	c-0.1,0-0.2,0-0.3,0.1l0,0c-0.1,0.1-0.1,0.2-0.1,0.3v1.1c0,0.1,0,0.2,0.1,0.3l0,0c0.1,0.1,0.2,0.1,0.3,0.1h1.3c0.1,0,0.2,0,0.3-0.1
	l0,0c0.1-0.1,0.1-0.2,0.1-0.3v-1.1c0-0.1,0-0.2-0.1-0.3l0,0C57.1,63.1,57,63.1,56.9,63.1L56.9,63.1z M60.1,63.1h-1.3
	c-0.1,0-0.2,0-0.3,0.1l0,0c-0.1,0.1-0.1,0.2-0.1,0.3v1.1c0,0.1,0,0.2,0.1,0.3l0,0c0.1,0.1,0.2,0.1,0.3,0.1h1.3c0.1,0,0.2,0,0.3-0.1
	l0,0c0.1-0.1,0.1-0.2,0.1-0.3v-1.1c0-0.1,0-0.2-0.1-0.3l0,0C60.3,63.1,60.2,63.1,60.1,63.1L60.1,63.1z M56.9,60.3h-1.3
	c-0.1,0-0.2,0-0.3,0.1l0,0c-0.1,0.1-0.1,0.2-0.1,0.3v1.1c0,0.1,0,0.2,0.1,0.3l0,0c0.1,0.1,0.2,0.1,0.3,0.1h1.3c0.1,0,0.2,0,0.3-0.1
	l0,0c0.1-0.1,0.1-0.2,0.1-0.3v-1.1c0-0.1,0-0.2-0.1-0.3l0,0C57.1,60.3,57,60.3,56.9,60.3L56.9,60.3z M60.1,60.3h-1.3
	c-0.1,0-0.2,0-0.3,0.1l0,0c-0.1,0.1-0.1,0.2-0.1,0.3v1.1c0,0.1,0,0.2,0.1,0.3l0,0c0.1,0.1,0.2,0.1,0.3,0.1h1.3c0.1,0,0.2,0,0.3-0.1
	l0,0c0.1-0.1,0.1-0.2,0.1-0.3v-1.1c0-0.1,0-0.2-0.1-0.3l0,0C60.3,60.3,60.2,60.3,60.1,60.3L60.1,60.3z M60.1,57.5h-1.3
	c-0.1,0-0.2,0-0.3,0.1l0,0c-0.1,0.1-0.1,0.2-0.1,0.3V59c0,0.1,0,0.2,0.1,0.3l0,0c0.1,0.1,0.2,0.1,0.3,0.1h1.3c0.1,0,0.2,0,0.3-0.1
	l0,0c0.1-0.1,0.1-0.2,0.1-0.3v-1.1c0-0.1,0-0.2-0.1-0.3l0,0C60.3,57.6,60.2,57.5,60.1,57.5L60.1,57.5z"/>
</svg>
