<?xml version="1.0" encoding="utf-8"?>
<!-- Generator: Adobe Illustrator 21.0.0, SVG Export Plug-In . SVG Version: 6.00 Build 0)  -->
<svg version="1.1" id="Layer_1" xmlns="http://www.w3.org/2000/svg" xmlns:xlink="http://www.w3.org/1999/xlink" x="0px" y="0px"
	 viewBox="0 0 130 130" style="enable-background:new 0 0 130 130;" xml:space="preserve">
<style type="text/css">
	.st0{fill-rule:evenodd;clip-rule:evenodd;fill:#DEDED4;}
	.st1{fill-rule:evenodd;clip-rule:evenodd;fill:#404042;}
</style>
<path class="st0" d="M65.1,0.8c35.2,0,63.6,28.5,63.6,63.6c0,35.2-28.5,63.6-63.6,63.6C30,128.1,1.5,99.6,1.5,64.5
	C1.5,29.3,30,0.8,65.1,0.8L65.1,0.8z"/>
<path class="st1" d="M40.4,97.4l-1.8-9.6l12.4-5.4v14.9V98h-0.8h-9.1h-0.6L40.4,97.4z M38.3,85.9l-2-10.7l14.7-6.4v11.6L38.3,85.9z
	 M36,73.3l-1.9-10.4l17-7.4v11.2L36,73.3z M33.8,61l-2.2-11.9l-0.1-0.5l0.5-0.3l18-10.4l1.1-0.6v1.3v15L33.8,61z M80.4,54.1
	l18.4,4.3L98,63.2l-19.5,9.7L80.4,54.1z M97.7,65.4l-1.2,8l-18.9,9.1l0.8-7.5L97.7,65.4z M96.1,75.5l-1.3,8.3L76.5,92l0.8-7.5
	L96.1,75.5z M94.5,86l-1.8,12H80.7h-4.8l0.4-3.8L94.5,86z M52.8,30.8l0,25.5L79,53.6l1.1-11.3L52.8,30.8z M52.8,58.2l0,6.6l25.4-2.3
	l0.7-7L52.8,58.2z M52.8,66.6v6.9l24.5-1.8l0.7-7.3L52.8,66.6z M52.7,75.3l0,22.8h21.9L77,73.5L52.7,75.3z"/>
</svg>
