<?xml version="1.0" encoding="utf-8"?>
<!-- Generator: Adobe Illustrator 21.0.0, SVG Export Plug-In . SVG Version: 6.00 Build 0)  -->
<svg version="1.1" id="Layer_1" xmlns="http://www.w3.org/2000/svg" xmlns:xlink="http://www.w3.org/1999/xlink" x="0px" y="0px"
	 viewBox="0 0 130 130" style="enable-background:new 0 0 130 130;" xml:space="preserve">
<style type="text/css">
	.st0{fill-rule:evenodd;clip-rule:evenodd;fill:#DEDED4;}
	.st1{fill-rule:evenodd;clip-rule:evenodd;fill:#404042;}
</style>
<path class="st0" d="M65.1,1.6c35.2,0,63.6,28.5,63.6,63.6c0,35.2-28.5,63.7-63.6,63.7c-35.2,0-63.6-28.5-63.6-63.7
	C1.5,30.1,30,1.6,65.1,1.6L65.1,1.6z"/>
<path class="st1" d="M37.2,33.4H63c1,0,2,0.5,2.7,1.2l0,0l0,0c0.7,0.7,1.1,1.7,1.1,2.8V93c0,0.3,0,0.7-0.1,1h29.4
	c0.2,0,0.4,0.1,0.6,0.3c0.2,0.1,0.2,0.4,0.2,0.6v1.3c0,0.2-0.1,0.4-0.2,0.6c-0.1,0.1-0.3,0.2-0.6,0.2H62.4c0,0,0,0-0.1,0H37.2
	c-1.1,0-2-0.5-2.7-1.2v0l0,0c-0.7-0.7-1.1-1.7-1.1-2.8V37.4c0-1.1,0.4-2.1,1.1-2.8l0,0v0C35.1,33.8,36.1,33.4,37.2,33.4L37.2,33.4z
	 M46.4,51h-4.9c-0.4,0-0.7,0.2-1,0.4l0,0c-0.3,0.3-0.4,0.6-0.4,1v4.3c0,0.4,0.1,0.7,0.4,1l0,0c0.2,0.3,0.6,0.4,1,0.4h4.9
	c0.4,0,0.7-0.2,1-0.4l0,0c0.2-0.3,0.4-0.6,0.4-1v-4.3c0-0.4-0.1-0.8-0.4-1l0,0C47.1,51.2,46.7,51,46.4,51L46.4,51z M46.4,40.4h-4.9
	c-0.4,0-0.7,0.2-1,0.4l0,0c-0.3,0.2-0.4,0.6-0.4,1V46c0,0.4,0.1,0.8,0.4,1l0,0c0.2,0.2,0.6,0.4,1,0.4h4.9c0.4,0,0.7-0.2,1-0.4l0,0
	c0.2-0.3,0.4-0.6,0.4-1v-4.3c0-0.4-0.1-0.8-0.4-1l0,0C47.1,40.5,46.7,40.4,46.4,40.4L46.4,40.4z M58.7,40.4h-4.9
	c-0.4,0-0.7,0.2-1,0.4l0,0c-0.2,0.2-0.4,0.6-0.4,1V46c0,0.4,0.2,0.8,0.4,1l0,0c0.2,0.2,0.6,0.4,1,0.4h4.9c0.4,0,0.7-0.2,1-0.4l0,0
	c0.2-0.3,0.4-0.6,0.4-1v-4.3c0-0.4-0.2-0.8-0.4-1l0,0C59.4,40.5,59.1,40.4,58.7,40.4L58.7,40.4z M46.4,83h-4.9c-0.4,0-0.7,0.2-1,0.4
	l0,0c-0.3,0.3-0.4,0.6-0.4,1v4.3c0,0.4,0.1,0.7,0.4,1l0,0c0.2,0.3,0.6,0.4,1,0.4h4.9c0.4,0,0.7-0.2,1-0.4l0,0c0.2-0.3,0.4-0.6,0.4-1
	v-4.3c0-0.4-0.1-0.8-0.4-1l0,0C47.1,83.1,46.7,83,46.4,83L46.4,83z M58.7,83h-4.9c-0.4,0-0.7,0.2-1,0.4l0,0c-0.2,0.3-0.4,0.6-0.4,1
	v4.3c0,0.4,0.2,0.7,0.4,1l0,0c0.2,0.3,0.6,0.4,1,0.4h4.9c0.4,0,0.7-0.2,1-0.4l0,0c0.2-0.3,0.4-0.6,0.4-1v-4.3c0-0.4-0.2-0.8-0.4-1
	l0,0C59.4,83.1,59.1,83,58.7,83L58.7,83z M46.4,72.3h-4.9c-0.4,0-0.7,0.2-1,0.4l0,0c-0.3,0.3-0.4,0.6-0.4,1V78c0,0.4,0.1,0.8,0.4,1
	l0,0c0.2,0.2,0.6,0.4,1,0.4h4.9c0.4,0,0.7-0.2,1-0.4l0,0c0.2-0.3,0.4-0.6,0.4-1v-4.3c0-0.4-0.1-0.7-0.4-1l0,0
	C47.1,72.5,46.7,72.3,46.4,72.3L46.4,72.3z M58.7,72.3h-4.9c-0.4,0-0.7,0.2-1,0.4l0,0c-0.2,0.3-0.4,0.6-0.4,1V78
	c0,0.4,0.2,0.8,0.4,1l0,0c0.2,0.2,0.6,0.4,1,0.4h4.9c0.4,0,0.7-0.2,1-0.4l0,0c0.2-0.3,0.4-0.6,0.4-1v-4.3c0-0.4-0.2-0.7-0.4-1l0,0
	C59.4,72.5,59.1,72.3,58.7,72.3L58.7,72.3z M46.4,61.6h-4.9c-0.4,0-0.7,0.2-1,0.4l0,0c-0.3,0.3-0.4,0.6-0.4,1v4.2
	c0,0.4,0.1,0.8,0.4,1l0,0c0.2,0.3,0.6,0.4,1,0.4h4.9c0.4,0,0.7-0.2,1-0.4l0,0c0.2-0.3,0.4-0.6,0.4-1v-4.2c0-0.4-0.1-0.8-0.4-1l0,0
	C47.1,61.8,46.7,61.6,46.4,61.6L46.4,61.6z M58.7,61.6h-4.9c-0.4,0-0.7,0.2-1,0.4l0,0c-0.2,0.3-0.4,0.6-0.4,1v4.2
	c0,0.4,0.2,0.8,0.4,1l0,0c0.2,0.3,0.6,0.4,1,0.4h4.9c0.4,0,0.7-0.2,1-0.4l0,0c0.2-0.3,0.4-0.6,0.4-1v-4.2c0-0.4-0.2-0.8-0.4-1l0,0
	C59.4,61.8,59.1,61.6,58.7,61.6L58.7,61.6z M58.7,51h-4.9c-0.4,0-0.7,0.2-1,0.4l0,0c-0.2,0.3-0.4,0.6-0.4,1v4.3c0,0.4,0.2,0.7,0.4,1
	l0,0c0.2,0.3,0.6,0.4,1,0.4h4.9c0.4,0,0.7-0.2,1-0.4l0,0c0.2-0.3,0.4-0.6,0.4-1v-4.3c0-0.4-0.2-0.8-0.4-1l0,0
	C59.4,51.2,59.1,51,58.7,51L58.7,51z"/>
</svg>
